<?xml version="1.0" encoding="utf-8"?>
<!-- Generator: Adobe Illustrator 16.0.3, SVG Export Plug-In . SVG Version: 6.00 Build 0)  -->
<!DOCTYPE svg PUBLIC "-//W3C//DTD SVG 1.1//EN" "http://www.w3.org/Graphics/SVG/1.1/DTD/svg11.dtd">
<svg version="1.1" id="Layer_3" xmlns="http://www.w3.org/2000/svg" xmlns:xlink="http://www.w3.org/1999/xlink" x="0px" y="0px"
	 width="336.001px" height="33.121px" viewBox="0 0 336.001 33.121" enable-background="new 0 0 336.001 33.121"
	 xml:space="preserve">
<g>
	<defs>
		<polygon id="SVGID_1_" points="0.72,7.81 335.281,0.24 335.281,32.88 0.72,25.56 		"/>
	</defs>
	<use xlink:href="#SVGID_1_"  overflow="visible" fill="#724F38"/>
	<clipPath id="SVGID_2_">
		<use xlink:href="#SVGID_1_"  overflow="visible"/>
	</clipPath>
	<g clip-path="url(#SVGID_2_)">
		<rect x="9" y="-3.19" fill="#A79A96" width="1.5" height="46.75"/>
		<rect x="31.75" y="-5.19" fill="#A79A96" width="1.5" height="46.75"/>
		<rect x="53" y="-6.815" fill="#A79A96" width="1.5" height="46.75"/>
		<rect x="73.5" y="-7.94" fill="#A79A96" width="1.5" height="46.75"/>
		<rect x="92.75" y="-7.94" fill="#A79A96" width="1.5" height="46.75"/>
		<rect x="111.25" y="-6.815" fill="#A79A96" width="1.5" height="46.75"/>
		<rect x="129" y="-7.94" fill="#A79A96" width="1.5" height="46.75"/>
		<rect x="145.5" y="-7.94" fill="#A79A96" width="1.5" height="46.75"/>
		<rect x="161.5" y="-7.94" fill="#A79A96" width="1.5" height="46.75"/>
		<rect x="176.75" y="-5.19" fill="#A79A96" width="1.5" height="46.75"/>
		<rect x="191.5" y="-3.19" fill="#A79A96" width="1.5" height="46.75"/>
		<rect x="205" y="-3.19" fill="#A79A96" width="1.5" height="46.75"/>
		<rect x="218" y="-3.19" fill="#A79A96" width="1.5" height="46.75"/>
		<rect x="230.25" y="-3.19" fill="#A79A96" width="1.5" height="46.75"/>
		<rect x="241.75" y="-6.815" fill="#A79A96" width="1.5" height="46.75"/>
		<rect x="252.5" y="-5.19" fill="#A79A96" width="1.5" height="46.75"/>
		<rect x="262.75" y="-6.815" fill="#A79A96" width="1.5" height="46.75"/>
		<rect x="272.75" y="-5.19" fill="#A79A96" width="1.5" height="46.75"/>
		<rect x="282" y="-6.815" fill="#A79A96" width="1.5" height="46.75"/>
		<rect x="290.75" y="-6.815" fill="#A79A96" width="1.5" height="46.75"/>
		<rect x="299.25" y="-6.815" fill="#A79A96" width="1.5" height="46.75"/>
		<rect x="307.25" y="-7.94" fill="#A79A96" width="1.5" height="46.75"/>
		<rect x="314.5" y="-6.815" fill="#A79A96" width="1.5" height="46.75"/>
		<rect x="321.75" y="-5.19" fill="#A79A96" width="1.5" height="46.75"/>
		<rect x="328.75" y="-3.19" fill="#A79A96" width="1.5" height="46.75"/>
		<circle fill="#A79A96" cx="64.25" cy="16.185" r="2"/>
		<circle fill="#A79A96" cx="103" cy="16.185" r="2"/>
		<circle fill="#A79A96" cx="138.334" cy="16.185" r="2"/>
		<circle fill="#A79A96" cx="170" cy="16.185" r="2"/>
		<circle fill="#A79A96" cx="247.833" cy="16.56" r="2"/>
		<circle fill="#A79A96" cx="268.5" cy="16.56" r="2"/>
		<circle fill="#A79A96" cx="287.167" cy="16.56" r="2"/>
		<circle fill="#A79A96" cx="304" cy="16.56" r="2"/>
		<circle fill="#A79A96" cx="326" cy="7.018" r="2"/>
		<circle fill="#A79A96" cx="326" cy="25.601" r="2"/>
		<circle fill="#A79A96" cx="212.084" cy="24.601" r="2"/>
		<circle fill="#A79A96" cx="212.084" cy="8.518" r="2"/>
		<polyline fill="none" stroke="#FFFFFF" stroke-miterlimit="10" points="337.75,29.56 -3,23.601 -3,18.56 340,20.185 337.75,11.81 
			-2.25,13.185 -2.25,9.56 337.75,3.06 		"/>
	</g>
</g>
</svg>
